<svg xmlns="http://www.w3.org/2000/svg" width="165.446" height="165.446" viewBox="0 0 165.446 165.446">
  <g id="Group_2" data-name="Group 2" transform="translate(-700.277 -371.277)">
    <path id="Subtraction_1" data-name="Subtraction 1" d="M93.421,176.144a18.874,18.874,0,0,1-13.435-5.565L16.264,106.856a19,19,0,0,1,0-26.869L79.987,16.264a19,19,0,0,1,26.869,0l63.723,63.723a19,19,0,0,1,0,26.869l-63.723,63.723A18.874,18.874,0,0,1,93.421,176.144Zm0-139.484a26.824,26.824,0,0,0-19.092,7.908l-29.76,29.76a27,27,0,0,0,0,38.184l29.76,29.76a27,27,0,0,0,38.184,0l29.76-29.76a27.031,27.031,0,0,0,0-38.184l-29.76-29.76A26.824,26.824,0,0,0,93.421,36.661Z" transform="translate(689.579 360.579)" fill="#7445d4"/>
    <g id="Group_1" data-name="Group 1" transform="translate(550.362 -420.691) rotate(45)">
      <path id="Rectangle_4" data-name="Rectangle 4" d="M25,0h0A25,25,0,0,1,50,25v0A25,25,0,0,1,25,50H0a0,0,0,0,1,0,0V25A25,25,0,0,1,25,0Z" transform="translate(747.644 418.645) rotate(-45)" fill="#fbbc05"/>
      <path id="Rectangle_6" data-name="Rectangle 6" d="M0,0H25A25,25,0,0,1,50,25v0A25,25,0,0,1,25,50h0A25,25,0,0,1,0,25V0A0,0,0,0,1,0,0Z" transform="translate(783 454) rotate(-45)" fill="#ea4335"/>
      <path id="Rectangle_5" data-name="Rectangle 5" d="M25,0H50a0,0,0,0,1,0,0V25A25,25,0,0,1,25,50h0A25,25,0,0,1,0,25v0A25,25,0,0,1,25,0Z" transform="translate(747.645 489.355) rotate(-45)" fill="#34a853"/>
      <path id="Rectangle_7" data-name="Rectangle 7" d="M25,0h0A25,25,0,0,1,50,25V50a0,0,0,0,1,0,0H25A25,25,0,0,1,0,25v0A25,25,0,0,1,25,0Z" transform="translate(712.289 454) rotate(-45)" fill="#4285f4"/>
    </g>
  </g>
</svg>
